<svg width="32" height="32" viewBox="0 0 32 32" fill="none" xmlns="http://www.w3.org/2000/svg">
<path fill-rule="evenodd" clip-rule="evenodd" d="M16.0009 7.46484C13.6834 7.46484 13.3925 7.47498 12.4823 7.5164C11.5739 7.558 10.9538 7.70182 10.4112 7.91285C9.84993 8.13081 9.37384 8.42236 8.89952 8.89686C8.42485 9.37117 8.13329 9.84727 7.91462 10.4083C7.70307 10.9511 7.55906 11.5714 7.51818 12.4795C7.47746 13.3897 7.4668 13.6807 7.4668 15.9983C7.4668 18.3158 7.47711 18.6058 7.51835 19.516C7.56013 20.4244 7.70395 21.0445 7.9148 21.5871C8.13294 22.1484 8.4245 22.6245 8.89899 23.0988C9.37313 23.5735 9.84922 23.8657 10.4101 24.0837C10.9531 24.2947 11.5733 24.4385 12.4816 24.4801C13.3918 24.5216 13.6825 24.5317 15.9999 24.5317C18.3176 24.5317 18.6075 24.5216 19.5178 24.4801C20.4262 24.4385 21.047 24.2947 21.59 24.0837C22.151 23.8657 22.6264 23.5735 23.1006 23.0988C23.5752 22.6245 23.8668 22.1484 24.0855 21.5873C24.2952 21.0445 24.4392 20.4243 24.4819 19.5162C24.5228 18.6059 24.5335 18.3158 24.5335 15.9983C24.5335 13.6807 24.5228 13.3899 24.4819 12.4797C24.4392 11.5712 24.2952 10.9511 24.0855 10.4085C23.8668 9.84727 23.5752 9.37117 23.1006 8.89686C22.6259 8.42219 22.1512 8.13063 21.5894 7.91285C21.0454 7.70182 20.425 7.558 19.5165 7.5164C18.6063 7.47498 18.3165 7.46484 15.9983 7.46484H16.0009ZM15.2354 9.00264C15.4626 9.00228 15.7161 9.00264 16.0009 9.00264C18.2793 9.00264 18.5494 9.01082 19.4491 9.0517C20.2811 9.08975 20.7327 9.22877 21.0335 9.34557C21.4317 9.50024 21.7157 9.68513 22.0141 9.9838C22.3128 10.2825 22.4977 10.5669 22.6527 10.9651C22.7695 11.2656 22.9087 11.7172 22.9466 12.5492C22.9875 13.4487 22.9964 13.719 22.9964 15.9963C22.9964 18.2737 22.9875 18.5439 22.9466 19.4435C22.9086 20.2755 22.7695 20.727 22.6527 21.0275C22.4981 21.4257 22.3128 21.7093 22.0141 22.0078C21.7155 22.3064 21.4319 22.4913 21.0335 22.646C20.7331 22.7633 20.2811 22.902 19.4491 22.94C18.5496 22.9809 18.2793 22.9898 16.0009 22.9898C13.7223 22.9898 13.4523 22.9809 12.5527 22.94C11.7207 22.9016 11.2691 22.7626 10.9682 22.6458C10.5699 22.4911 10.2855 22.3062 9.98682 22.0076C9.68815 21.7089 9.50326 21.4252 9.34824 21.0268C9.23143 20.7263 9.09223 20.2748 9.05437 19.4427C9.01348 18.5432 9.0053 18.273 9.0053 15.9942C9.0053 13.7154 9.01348 13.4466 9.05437 12.547C9.09241 11.715 9.23143 11.2635 9.34824 10.9627C9.5029 10.5644 9.68815 10.28 9.98682 9.98131C10.2855 9.68264 10.5699 9.49775 10.9682 9.34273C11.269 9.2254 11.7207 9.08673 12.5527 9.0485C13.3399 9.01295 13.645 9.00228 15.2354 9.0005V9.00264ZM20.5553 10.4183C19.9899 10.4183 19.5312 10.8765 19.5312 11.442C19.5312 12.0073 19.9899 12.466 20.5553 12.466C21.1206 12.466 21.5793 12.0073 21.5793 11.442C21.5793 10.8766 21.1206 10.418 20.5553 10.418V10.4183ZM16.0014 11.6172C13.5813 11.6172 11.6191 13.5793 11.6191 15.9995C11.6191 18.4196 13.5813 20.3808 16.0014 20.3808C18.4215 20.3808 20.383 18.4196 20.383 15.9995C20.383 13.5793 18.4213 11.6172 16.0012 11.6172H16.0014ZM16.0007 13.1523C17.5716 13.1523 18.8452 14.4258 18.8452 15.9968C18.8452 17.5677 17.5716 18.8413 16.0007 18.8413C14.4297 18.8413 13.1562 17.5677 13.1562 15.9968C13.1562 14.4258 14.4297 13.1523 16.0007 13.1523Z" fill="white"/>
</svg>
