<svg width="32" height="32" viewBox="0 0 32 32" fill="none" xmlns="http://www.w3.org/2000/svg">
<path fill-rule="evenodd" clip-rule="evenodd" d="M16.0029 7.46484C13.6853 7.46484 13.3945 7.47498 12.4843 7.5164C11.5758 7.558 10.9557 7.70182 10.4131 7.91285C9.85189 8.13081 9.37579 8.42236 8.90148 8.89686C8.4268 9.37117 8.13525 9.84727 7.91658 10.4083C7.70502 10.9511 7.56102 11.5714 7.52013 12.4795C7.47942 13.3897 7.46875 13.6807 7.46875 15.9983C7.46875 18.3158 7.47906 18.6058 7.52031 19.516C7.56208 20.4244 7.70591 21.0445 7.91675 21.5871C8.13489 22.1484 8.42645 22.6245 8.90094 23.0988C9.37508 23.5735 9.85117 23.8657 10.4121 24.0837C10.955 24.2947 11.5753 24.4385 12.4836 24.4801C13.3938 24.5216 13.6845 24.5317 16.0018 24.5317C18.3195 24.5317 18.6095 24.5216 19.5197 24.4801C20.4282 24.4385 21.049 24.2947 21.5919 24.0837C22.153 23.8657 22.6284 23.5735 23.1025 23.0988C23.5772 22.6245 23.8687 22.1484 24.0874 21.5873C24.2972 21.0445 24.4412 20.4243 24.4839 19.5162C24.5247 18.6059 24.5354 18.3158 24.5354 15.9983C24.5354 13.6807 24.5247 13.3899 24.4839 12.4797C24.4412 11.5712 24.2972 10.9511 24.0874 10.4085C23.8687 9.84727 23.5772 9.37117 23.1025 8.89686C22.6278 8.42219 22.1532 8.13063 21.5914 7.91285C21.0474 7.70182 20.4269 7.558 19.5185 7.5164C18.6082 7.47498 18.3185 7.46484 16.0002 7.46484H16.0029ZM15.2374 9.00264C15.4646 9.00228 15.7181 9.00264 16.0029 9.00264C18.2813 9.00264 18.5514 9.01082 19.4511 9.0517C20.2831 9.08975 20.7347 9.22877 21.0355 9.34557C21.4337 9.50024 21.7176 9.68513 22.0161 9.9838C22.3148 10.2825 22.4997 10.5669 22.6547 10.9651C22.7715 11.2656 22.9107 11.7172 22.9486 12.5492C22.9894 13.4487 22.9983 13.719 22.9983 15.9963C22.9983 18.2737 22.9894 18.5439 22.9486 19.4435C22.9105 20.2755 22.7715 20.727 22.6547 21.0275C22.5 21.4257 22.3148 21.7093 22.0161 22.0078C21.7174 22.3064 21.4339 22.4913 21.0355 22.646C20.735 22.7633 20.2831 22.902 19.4511 22.94C18.5515 22.9809 18.2813 22.9898 16.0029 22.9898C13.7243 22.9898 13.4542 22.9809 12.5547 22.94C11.7227 22.9016 11.2711 22.7626 10.9701 22.6458C10.5719 22.4911 10.2874 22.3062 9.98877 22.0076C9.6901 21.7089 9.50521 21.4252 9.35019 21.0268C9.23339 20.7263 9.09419 20.2748 9.05632 19.4427C9.01543 18.5432 9.00725 18.273 9.00725 15.9942C9.00725 13.7154 9.01543 13.4466 9.05632 12.547C9.09436 11.715 9.23339 11.2635 9.35019 10.9627C9.50486 10.5644 9.6901 10.28 9.98877 9.98131C10.2874 9.68264 10.5719 9.49775 10.9701 9.34273C11.2709 9.2254 11.7227 9.08673 12.5547 9.0485C13.3419 9.01295 13.6469 9.00228 15.2374 9.0005V9.00264ZM20.5553 10.4183C19.9899 10.4183 19.5312 10.8765 19.5312 11.442C19.5312 12.0073 19.9899 12.466 20.5553 12.466C21.1206 12.466 21.5793 12.0073 21.5793 11.442C21.5793 10.8766 21.1206 10.418 20.5553 10.418V10.4183ZM16.0034 11.6172C13.5832 11.6172 11.6211 13.5793 11.6211 15.9995C11.6211 18.4196 13.5832 20.3808 16.0034 20.3808C18.4235 20.3808 20.3849 18.4196 20.3849 15.9995C20.3849 13.5793 18.4233 11.6172 16.0032 11.6172H16.0034ZM16.0007 13.1523C17.5716 13.1523 18.8452 14.4258 18.8452 15.9968C18.8452 17.5677 17.5716 18.8413 16.0007 18.8413C14.4297 18.8413 13.1562 17.5677 13.1562 15.9968C13.1562 14.4258 14.4297 13.1523 16.0007 13.1523Z" fill="#8A8C8B"/>
</svg>
