<svg width="32" height="32" viewBox="0 0 32 32" fill="none" xmlns="http://www.w3.org/2000/svg">
<path fill-rule="evenodd" clip-rule="evenodd" d="M22.6698 10.499C23.4042 10.7005 23.9825 11.2943 24.1788 12.0483C24.5354 13.4148 24.5354 16.2661 24.5354 16.2661C24.5354 16.2661 24.5354 19.1174 24.1788 20.484C23.9825 21.238 23.4042 21.8317 22.6698 22.0334C21.339 22.3995 16.0021 22.3995 16.0021 22.3995C16.0021 22.3995 10.6652 22.3995 9.33425 22.0334C8.5999 21.8317 8.02157 21.238 7.82531 20.484C7.46875 19.1174 7.46875 16.2661 7.46875 16.2661C7.46875 16.2661 7.46875 13.4148 7.82531 12.0483C8.02157 11.2943 8.5999 10.7005 9.33425 10.499C10.6652 10.1328 16.0021 10.1328 16.0021 10.1328C16.0021 10.1328 21.339 10.1328 22.6698 10.499ZM14.4019 13.8672V19.2005L18.6685 16.534L14.4019 13.8672Z" fill="#8A8C8B"/>
</svg>
